Coordinates
version=1
nRows=5
nColumns=107
inDegrees=yes

Units are S.I. units (second, meters, Newtons, ...)
If the header above contains a line with 'inDegrees', this indicates whether rotational values are in degrees (yes) or radians (no).

endheader
time	sternoclavicular_r2	sternoclavicular_r3	unrotscap_r3	unrotscap_r2	acromioclavicular_r2	acromioclavicular_r3	acromioclavicular_r1	unrothum_r1	unrothum_r3	unrothum_r2	elv_angle	shoulder_elv	shoulder1_r2	shoulder_rot	elbow_flexion	pro_sup	deviation	flexion	proximal_distal_r1	proximal_distal_r3	cmc_flexion	cmc_abduction	mp_flexion	ip_flexion	mcp2_flexion	mcp2_abduction	pm2_flexion	md2_flexion	mcp3_flexion	mcp3_abduction	pm3_flexion	md3_flexion	mcp4_flexion	mcp4_abduction	pm4_flexion	md4_flexion	mcp5_flexion	mcp5_abduction	pm5_flexion	md5_flexion	bicpt_tx	bicpt_ty	bicpt_tz	bicpt2_tx	bicpt2_ty	bicpt2_tz	ptpt_tx	ptpt_ty	ptpt_tz	FCUpt_tx	FCUpt_ty	FCUpt_tz	EDCpt_tx	EDCpt_ty	EDCpt_tz	APLpt_tx	APLpt_ty	APLpt_tz	FPLpt_tx	FPLpt_ty	FPLpt_tz	FPLpt2_tx	FPLpt2_ty	FPLpt2_tz	PEC1pt2_tx	PEC1pt2_ty	PEC1pt2_tz	PEC1pt3_tx	PEC1pt3_ty	PEC1pt3_tz	PEC2pt2_tx	PEC2pt2_ty	PEC2pt2_tz	PEC2pt3_tx	PEC2pt3_ty	PEC2pt3_tz	PEC3pt2_tx	PEC3pt2_ty	PEC3pt2_tz	PEC3pt3_tx	PEC3pt3_ty	PEC3pt3_tz	DELT2pt2a_tx	DELT2pt2a_ty	DELT2pt2a_tz	DELT2pt2_tx	DELT2pt2_ty	DELT2pt2_tz	LAT1pt2_tx	LAT1pt2_ty	LAT1pt2_tz	LAT1pt3_tx	LAT1pt3_ty	LAT1pt3_tz	LAT2pt2_tx	LAT2pt2_ty	LAT2pt2_tz	LAT2pt3_tx	LAT2pt3_ty	LAT2pt3_tz	LAT3pt2_tx	LAT3pt2_ty	LAT3pt2_tz	LAT3pt3_tx	LAT3pt3_ty	LAT3pt3_tz
      0.00000000	     -0.32423788	      0.13733186	     -0.13733186	      0.32423788	     -0.06565157	      0.53057293	      0.23848888	     -0.23848888	     -0.53057293	      0.06565157	     98.91289762	     76.76619979	     -1.72635574	    -19.20082044	     27.30214994	     18.50482992	      0.01783963	     -0.84306954	      0.02395082	     -0.42153477	     -5.40349503	     -4.88354687	    -27.76184228	    -37.52448903	     -6.78316643	     12.74340416	     10.01514924	    -27.95553351	     36.65480252	      6.62607950	     84.76218571	     63.72652943	     30.78685561	     -4.93528114	     83.37715132	     42.82670478	      6.16632052	     -2.55697967	    -22.62861283	      4.87750285	      0.00080307	     -0.03072924	     -0.00480404	      0.01600573	     -0.01761676	     -0.00944076	      0.00618270	     -0.06578412	     -0.00154066	      0.00568743	     -0.18387662	     -0.00005985	     -0.00222057	      0.00057715	      0.00017553	      0.00026735	      0.00010694	      0.00053469	      0.00034220	      0.00102661	      0.00057747	     -0.00041573	      0.00015130	      0.00018156	      0.00251623	      0.00882812	      0.00614130	     -0.00823105	      0.01987393	     -0.01885038	      0.00251623	      0.00882812	      0.00614130	      0.00055442	      0.01842390	     -0.00968108	      0.00397056	      0.00490921	      0.01602267	      0.00000000	      0.00788202	      0.00000000	     -0.00720750	     -0.03330803	     -0.00649966	      0.01331084	     -0.00040752	     -0.00302580	     -0.00089561	      0.01501207	     -0.00614130	      0.00247358	      0.02166515	     -0.01791213	     -0.00601336	      0.01300762	     -0.00550158	     -0.01253849	      0.02746526	     -0.03074915	     -0.02354165	      0.01454294	     -0.00737809	     -0.01560914	      0.03173006	     -0.03842578
      0.03333333	     -0.32414522	      0.13729261	     -0.13729261	      0.32414522	     -0.06563281	      0.53042131	      0.23842073	     -0.23842073	     -0.53042131	      0.06563281	     98.90122111	     76.74426125	     -1.72615194	    -19.20464376	     27.28845367	     18.49907311	      0.01783143	     -0.84303250	      0.02393950	     -0.42151625	     -5.40260939	     -4.88440362	    -27.76150382	    -37.52446556	     -6.78346339	     12.74195694	     10.01472640	    -27.95547517	     36.65745591	      6.62568078	     84.76170449	     63.72598048	     30.78647942	     -4.93483150	     83.37669478	     42.82657578	      6.16729611	     -2.55894447	    -22.62846943	      4.87755769	      0.00080262	     -0.03072767	     -0.00480379	      0.01600544	     -0.01761304	     -0.00944120	      0.00618313	     -0.06578384	     -0.00154020	      0.00568689	     -0.18387670	     -0.00005972	     -0.00221988	      0.00057695	      0.00017550	      0.00026736	      0.00010694	      0.00053472	      0.00034222	      0.00102666	      0.00057750	     -0.00041576	      0.00015128	      0.00018154	      0.00251551	      0.00882560	      0.00613955	     -0.00822870	      0.01986825	     -0.01884500	      0.00251551	      0.00882560	      0.00613955	      0.00055426	      0.01841864	     -0.00967831	      0.00396973	      0.00490780	      0.01602067	      0.00000000	      0.00787749	      0.00000000	     -0.00720544	     -0.03329851	     -0.00649589	      0.01331306	     -0.00040764	     -0.00302711	     -0.00089535	      0.01500778	     -0.00613955	      0.00247287	      0.02165895	     -0.01790701	     -0.00601164	      0.01300390	     -0.00550001	     -0.01253491	      0.02745741	     -0.03074037	     -0.02353493	      0.01453879	     -0.00737598	     -0.01560468	      0.03172099	     -0.03841480
      0.06666667	     -0.32357109	      0.13704944	     -0.13704944	      0.32357109	     -0.06551656	      0.52948182	      0.23799843	     -0.23799843	     -0.52948182	      0.06551656	     99.03688985	     76.60833084	     -1.72851981	    -19.89010288	     27.23871855	     17.97431141	      0.00374044	     -0.85226970	      0.00506507	     -0.42613485	     -5.57569700	     -5.48860352	    -28.22456967	    -37.38311525	     -6.72277273	     12.52511770	      8.63918787	    -25.89818398	     37.23405269	      5.67845995	     84.25121351	     60.37694186	     30.23051961	     -5.18414259	     84.18140451	     41.91192058	      4.90246763	     -3.03249468	    -21.67778936	      4.89568695	      0.00080097	     -0.03072197	     -0.00480287	      0.01597833	     -0.01759953	     -0.00948121	      0.00622190	     -0.06575877	     -0.00149793	      0.00563758	     -0.18388437	     -0.00004739	     -0.00215691	      0.00055913	      0.00017308	      0.00026370	      0.00010548	      0.00052740	      0.00033754	      0.00101261	      0.00056960	     -0.00043907	      0.00015665	      0.00018798	      0.00251105	      0.00880997	      0.00612867	     -0.00821412	      0.01983306	     -0.01881162	      0.00251105	      0.00880997	      0.00612867	      0.00055328	      0.01838601	     -0.00966117	      0.00396461	      0.00489911	      0.01600825	      0.00000000	      0.00784941	      0.00000000	     -0.00719268	     -0.03323953	     -0.00647258	      0.01371276	     -0.00042856	     -0.00326013	     -0.00089376	      0.01498120	     -0.00612867	      0.00246849	      0.02162059	     -0.01787529	     -0.00600099	      0.01298087	     -0.00549027	     -0.01251270	      0.02740878	     -0.03068592	     -0.02349324	      0.01451303	     -0.00736292	     -0.01557704	      0.03166480	     -0.03834676
      0.10000000	     -0.32351734	      0.13702668	     -0.13702668	      0.32351734	     -0.06550568	      0.52939386	      0.23795890	     -0.23795890	     -0.52939386	      0.06550568	     99.03012843	     76.59560543	     -1.72840180	    -19.89304376	     27.22842694	     17.97003058	      0.00373416	     -0.85223771	      0.00505637	     -0.42611886	     -5.57454736	     -5.48916807	    -28.22416109	    -37.38313568	     -6.72141117	     12.52404549	      8.63969009	    -25.89800460	     37.23582523	      5.67852388	     84.25121202	     60.37678985	     30.22850715	     -5.18383343	     84.18000325	     41.91168493	      4.90434665	     -3.03435390	    -21.67740706	      4.89573628	      0.00080063	     -0.03072079	     -0.00480268	      0.01597811	     -0.01759674	     -0.00948153	      0.00622222	     -0.06575857	     -0.00149758	      0.00563718	     -0.18388444	     -0.00004729	     -0.00215640	      0.00055898	      0.00017306	      0.00026371	      0.00010548	      0.00052742	      0.00033755	      0.00101264	      0.00056961	     -0.00043930	      0.00015663	      0.00018795	      0.00251064	      0.00880850	      0.00612765	     -0.00821276	      0.01982977	     -0.01880849	      0.00251064	      0.00880850	      0.00612765	      0.00055319	      0.01838296	     -0.00965957	      0.00396413	      0.00489830	      0.01600709	      0.00000000	      0.00784678	      0.00000000	     -0.00719148	     -0.03323401	     -0.00647040	      0.01371446	     -0.00042865	     -0.00326115	     -0.00089362	      0.01497871	     -0.00612765	      0.00246808	      0.02161700	     -0.01787232	     -0.00599999	      0.01297871	     -0.00548936	     -0.01251063	      0.02740423	     -0.03068082	     -0.02348934	      0.01451062	     -0.00736169	     -0.01557445	      0.03165954	     -0.03834039
      0.13333333	     -0.32252468	      0.13660623	     -0.13660623	      0.32252468	     -0.06530469	      0.52776951	      0.23722876	     -0.23722876	     -0.52776951	      0.06530469	     99.30828177	     76.36058526	     -1.73325649	    -21.25988865	     27.19563468	     19.05203754	      0.00029132	     -0.84608435	      0.00039563	     -0.42304217	     -5.13034928	     -5.75909673	    -28.36342700	    -38.54656556	     -6.64231392	     12.44158698	      9.28494957	    -26.93419825	     38.01380501	      5.55171994	     83.92644969	     59.52341380	     30.03239343	     -5.00629533	     83.42678481	     41.46701211	      5.50758924	     -3.65551219	    -22.32575440	      4.90913337	      0.00079955	     -0.03071704	     -0.00480207	      0.01603332	     -0.01758783	     -0.00939863	      0.00614227	     -0.06581026	     -0.00158474	      0.00573894	     -0.18386853	     -0.00007248	     -0.00228624	      0.00059582	      0.00017789	      0.00026617	      0.00010647	      0.00053233	      0.00034069	      0.00102208	      0.00057492	     -0.00038002	      0.00014288	      0.00017146	      0.00250293	      0.00878147	      0.00610885	     -0.00818756	      0.01976892	     -0.01875078	      0.00250293	      0.00878147	      0.00610885	      0.00055149	      0.01832656	     -0.00962993	      0.00395526	      0.00488327	      0.01598551	      0.00000000	      0.00779836	      0.00000000	     -0.00716942	     -0.03313204	     -0.00643021	      0.01449266	     -0.00047094	     -0.00374796	     -0.00089087	      0.01493275	     -0.00610885	      0.00246051	      0.02155067	     -0.01781748	     -0.00598158	      0.01293889	     -0.00547251	     -0.01247224	      0.02732014	     -0.03058668	     -0.02341727	      0.01446610	     -0.00733911	     -0.01552667	      0.03156240	     -0.03822275
